<?xml version="1.0" encoding="utf-8"?>
<!-- Generator: Adobe Illustrator 16.0.3, SVG Export Plug-In . SVG Version: 6.00 Build 0)  -->
<!DOCTYPE svg PUBLIC "-//W3C//DTD SVG 1.1//EN" "http://www.w3.org/Graphics/SVG/1.1/DTD/svg11.dtd">
<svg version="1.1" id="Layer_1" xmlns="http://www.w3.org/2000/svg" xmlns:xlink="http://www.w3.org/1999/xlink" x="0px" y="0px"
	 width="180.632px" height="116.466px" viewBox="0 0 180.632 116.466" enable-background="new 0 0 180.632 116.466"
	 xml:space="preserve">
<g>
	<rect x="-53.684" y="-28.914" fill="none" width="288" height="198"/>
	<g>
		<path fill="#FF0000" d="M180.632,31.44C168.337,13,145.605-0.01,121.349,0C97.464,0,74.754,12.631,62.052,31.44h16.956
			c11.572-11.921,26.567-18.398,42.341-18.413c15.496,0,30.746,6.491,42.322,18.413H180.632z"/>
		<g>
			<path fill="#FFFFFF" d="M55.052,93.909l-0.322,0.317c-5.195,5.322-11.235,8.135-17.452,8.135
				c-12.985,0-22.406-9.737-22.406-23.168c0-13.41,9.421-23.172,22.406-23.172c6.217,0,12.257,2.816,17.452,8.145l0.322,0.331
				l8.372-10.103l-0.217-0.26c-6.939-8.22-15.292-12.2-25.526-12.2c-10.282,0-19.665,3.433-26.463,9.672
				C3.867,58.399,0,67.905,0,79.193c0,11.27,3.867,20.814,11.217,27.578c6.798,6.264,16.181,9.695,26.463,9.695
				c10.234,0,18.587-4.004,25.526-12.195l0.217-0.275L55.052,93.909z"/>
			<polygon fill="#FFFFFF" points="71.852,115.086 86.596,115.086 86.596,108.941 86.596,43.088 71.852,43.088 			"/>
			<path fill="#FFFFFF" d="M144.404,99.435c-3.941,2.383-7.62,3.611-10.92,3.611c-4.773,0-6.896-2.51-6.896-8.136V56.711h14.995
				V43.158h-14.995V20.752l-14.484,7.734v14.672H99.638v13.553h12.465V97.35c0,11.075,6.576,18.644,16.37,18.838
				c6.638,0.112,10.66-1.844,13.071-3.31l0.15-0.104l3.561-13.869L144.404,99.435z"/>
			<polygon fill="#FFFFFF" points="156.6,115.086 171.353,115.086 171.353,107.045 171.353,43.088 156.6,43.088 			"/>
		</g>
	</g>
</g>
</svg>
